<?xml version="1.0" encoding="UTF-8"?>
<svg id="Layer_2" data-name="Layer 2" xmlns="http://www.w3.org/2000/svg" viewBox="0 0 1200 630">
  <defs>
    <style>
      .cls-1, .cls-2 {
        fill: #fff;
      }

      .cls-3 {
        letter-spacing: -.09em;
      }

      .cls-4 {
        letter-spacing: -.03em;
      }

      .cls-5 {
        letter-spacing: -.03em;
      }

      .cls-6 {
        letter-spacing: 0em;
      }

      .cls-2 {
        font-family: ABCMonumentGroteskUnlicensedTrial-Light, 'ABC Monument Grotesk Unlicensed Trial';
        font-size: 52.77px;
        font-weight: 300;
        opacity: .8;
      }

      .cls-7 {
        letter-spacing: 0em;
      }
    </style>
  </defs>
  <g id="Layer_1-2" data-name="Layer 1">
    <g>
      <rect width="1200" height="630"/>
      <g>
        <text class="cls-2" transform="translate(342.48 407.09)"><tspan x="0" y="0">IOS</tspan><tspan class="cls-5" x="85.16" y="0"> </tspan><tspan x="96.56" y="0">App - </tspan><tspan class="cls-6" x="235.49" y="0">U</tspan><tspan x="271.74" y="0">se</tspan><tspan class="cls-5" x="325.56" y="0">r</tspan><tspan class="cls-4" x="341.61" y="0"> </tspan><tspan class="cls-3" x="352.69" y="0">T</tspan><tspan x="376.64" y="0">e</tspan><tspan class="cls-7" x="405.08" y="0">s</tspan><tspan x="430.36" y="0">ting</tspan></text>
        <g>
          <g id="uuid-983ebc14-d252-4218-a07d-21cccc86bc21" data-name="Layer 1-2">
            <g>
              <path class="cls-1" d="M437.12,213.29h33.57v28.06h19.91v-28.06h33.57v83.94h-33.57v-29.5h-19.91v29.5h-33.57v-83.94Z"/>
              <path class="cls-1" d="M535.45,213.29h70.03v21.11h-40.06v10.67h35.98v19.91h-35.98v11.16h40.06v21.11h-70.03s0-83.96,0-83.96Z"/>
              <path class="cls-1" d="M616.75,213.29h24.46v63.8h39.33v20.15h-63.8v-83.96h.02Z"/>
              <path class="cls-1" d="M691.21,213.29h16.31v83.94h-16.31v-83.94Z"/>
              <path class="cls-1" d="M722.28,255.27c0-24.82,19.06-43.65,44.12-43.65s44.12,18.83,44.12,43.65-19.06,43.65-44.12,43.65-44.12-18.83-44.12-43.65ZM796.86,255.27c0-18.23-12.95-31.65-30.46-31.65s-30.46,13.43-30.46,31.65,12.95,31.65,30.46,31.65,30.46-13.43,30.46-31.65Z"/>
              <path class="cls-1" d="M821.81,291.61v-14.26c5.16,5.87,12.83,9.6,21.11,9.6,9.11,0,15.71-4.55,15.71-12.47,0-4.91-2.76-9.11-9.95-11.63l-7.43-2.63c-13.08-4.68-18.23-12.47-18.23-23.03,0-15.6,12.23-25.53,28.3-25.53,8.03,0,15.58,2.52,20.27,6.6v14.04c-4.91-5.4-12.12-8.64-19.79-8.64-9.24,0-15.82,4.55-15.82,12.59,0,5.04,2.63,8.88,9.71,11.38l7.43,2.63c13.19,4.68,18.46,12.59,18.46,23.14,0,15.6-12.23,25.53-28.54,25.53-8.75,0-16.67-2.76-21.22-7.32h.02Z"/>
            </g>
          </g>
          <g>
            <path class="cls-1" d="M370.67,275.77l-.74-1.28c-2.86-4.95-9.19-6.64-14.14-3.79h0s-.8,2.98-.8,2.98l12.99,22.49h.02c4.68.16,9.19-.48,13.42-1.78l-9.21-15.95"/>
            <path class="cls-1" d="M355.79,270.7l.38-1.43c1.48-5.52-1.8-11.2-7.32-12.67h0s-2.67,1.54-2.67,1.54l-6.72,25.07c3.09,3.31,6.73,6.11,10.76,8.25l4.76-17.77"/>
            <path class="cls-1" d="M348.86,256.6l1.29-.74c4.95-2.86,6.64-9.18,3.79-14.13h0s-2.98-.8-2.98-.8l-22.49,12.99v.02c-.16,4.68.48,9.19,1.78,13.42l15.95-9.21"/>
            <path class="cls-1" d="M353.93,241.72l1.43.38c5.52,1.48,11.19-1.8,12.67-7.32h0s-1.54-2.67-1.54-2.67l-25.07-6.72c-3.31,3.09-6.11,6.73-8.25,10.76l17.77,4.76"/>
            <path class="cls-1" d="M368.04,234.79l.74,1.28c2.86,4.95,9.19,6.64,14.14,3.79h0s.8-2.98.8-2.98l-12.99-22.49h-.02c-4.68-.16-9.19.48-13.42,1.78l9.21,15.95"/>
            <path class="cls-1" d="M382.91,239.86l-.38,1.43c-1.48,5.52,1.8,11.19,7.32,12.67h0s2.67-1.54,2.67-1.54l6.72-25.07c-3.09-3.31-6.73-6.11-10.76-8.25l-4.76,17.77"/>
            <path class="cls-1" d="M389.84,253.96l-1.28.74c-4.95,2.86-6.64,9.19-3.79,14.13h0s2.98.8,2.98.8l22.49-12.99v-.02c.16-4.68-.48-9.19-1.78-13.42l-15.95,9.21"/>
            <path class="cls-1" d="M384.77,268.84l-1.43-.38c-5.52-1.48-11.19,1.8-12.67,7.32h0s1.54,2.67,1.54,2.67l25.07,6.72c3.31-3.09,6.1-6.73,8.25-10.76l-17.77-4.76"/>
          </g>
        </g>
      </g>
    </g>
  </g>
</svg>