<?xml version="1.0" encoding="UTF-8"?>
<svg id="Layer_2" data-name="Layer 2" xmlns="http://www.w3.org/2000/svg" viewBox="0 0 173.47 173.47">
  <defs>
    <style>
      .cls-1 {
        fill: #fff;
      }
    </style>
  </defs>
  <g id="Layer_1-2" data-name="Layer 1">
    <g>
      <path class="cls-1" d="M89.53,130.16l-1.57-2.72c-6.05-10.49-19.47-14.08-29.95-8.03h0s-1.69,6.32-1.69,6.32l27.52,47.67.05.03c9.92.32,19.48-1.04,28.43-3.8l-19.51-33.8"/>
      <path class="cls-1" d="M58,119.42l.81-3.03c3.13-11.7-3.81-23.72-15.51-26.86h0s-5.66,3.27-5.66,3.27l-14.24,53.13c6.56,7.01,14.26,12.94,22.81,17.47l10.09-37.66"/>
      <path class="cls-1" d="M43.31,89.53l2.72-1.57c10.49-6.05,14.08-19.46,8.02-29.95h0s-6.32-1.69-6.32-1.69L.07,83.83l-.03.05c-.32,9.92,1.04,19.48,3.8,28.43l33.8-19.51"/>
      <path class="cls-1" d="M54.06,58l3.03.81c11.7,3.13,23.72-3.81,26.86-15.5h0s-3.27-5.66-3.27-5.66l-53.12-14.23c-7.01,6.56-12.94,14.26-17.47,22.81l37.66,10.09"/>
      <path class="cls-1" d="M83.95,43.31l1.57,2.72c6.05,10.49,19.47,14.08,29.95,8.03h0s1.69-6.32,1.69-6.32L89.64.07l-.05-.03c-9.92-.32-19.48,1.04-28.43,3.8l19.51,33.8"/>
      <path class="cls-1" d="M115.47,54.06l-.81,3.04c-3.13,11.7,3.81,23.72,15.5,26.85h0s5.67-3.27,5.67-3.27l14.23-53.12c-6.56-7.01-14.26-12.94-22.81-17.47l-10.09,37.66"/>
      <path class="cls-1" d="M130.16,83.95l-2.72,1.57c-10.49,6.05-14.08,19.46-8.03,29.95h0s6.32,1.69,6.32,1.69l47.66-27.52.03-.05c.32-9.92-1.04-19.48-3.8-28.43l-33.79,19.51"/>
      <path class="cls-1" d="M119.41,115.47l-3.03-.81c-11.7-3.13-23.72,3.81-26.85,15.5h0s3.27,5.67,3.27,5.67l53.13,14.23c7.01-6.56,12.94-14.26,17.47-22.81l-37.66-10.09"/>
    </g>
  </g>
</svg>